<?xml version="1.0" encoding="utf-8"?>
<!-- Generator: Adobe Illustrator 16.0.0, SVG Export Plug-In . SVG Version: 6.00 Build 0)  -->
<!DOCTYPE svg PUBLIC "-//W3C//DTD SVG 1.1//EN" "http://www.w3.org/Graphics/SVG/1.1/DTD/svg11.dtd">
<svg version="1.1" id="Layer_1" xmlns="http://www.w3.org/2000/svg" xmlns:xlink="http://www.w3.org/1999/xlink" x="0px" y="0px"
	 width="1600px" height="310px" viewBox="0 0 1600 310" enable-background="new 0 0 1600 310" xml:space="preserve">
<path fill="#CCD1E9" d="M1214.14,220.276v-75.645h-18.409V80.205h-46.031v140.071h-20.578v-75.645h-36.284v-32.214h-23.014v9.204
	h-9.747v4.026h-11.509v6.903h-6.498v87.725h-7.313V112.417h-33.979v107.859h-5.007v-57.813h-43.73v57.813h-2.302V68.7h-43.729
	v151.576h-12.05V107.527l-43.729-26.461v73.919h-12.051v-16.106h-28.563v81.397h-57.879V94.298h-45.555v125.979h-49.215V49.141
	h-45.555v92.038h-14.588v-21.859h-45.554v43.145h-14.623v57.813h-12.932V112.417H480V310h800v-89.724H1214.14z"/>
<path fill-rule="evenodd" clip-rule="evenodd" fill="#A9B0D9" d="M800,310h-21H0V150.103h6.235l1.214-50.6l1.211,50.6h15.129v23.444
	h20.966V252h4.369v-52.139h14.849v6.154h14.852V252h1.457v-70.014h22.421V252h13.396v-41.238h14.852V252h6.406v-52.137h29.703V252
	h4.366V150.103h18.475l18.766-32.709l18.766,32.709h19.124V252h8.734V150.103h27.083V252h5.531V86.512h5.956
	c2.403-6.146,8.195-10.556,15.068-10.915l1.119-46.688l1.119,46.71c6.678,0.521,12.273,4.878,14.626,10.892h7.538v99.048h10.482
	v-19.928h23.297v12.016h21.839v17.289h13.104V252h5.532V124.902h28.537v16.429h2.021l10.004-17.438l10.005,17.438h20.192v-27.859
	h16.304l1.038-43.333l1.038,43.333h12.255V252h18.286v-79.627h32.383V252h23.172V150.689h28.369V252h36.923V116.403
	c0-7.59,5.891-13.779,13.321-14.23l0.863-36.032l0.864,36.032c7.428,0.451,13.32,6.641,13.32,14.23V252h5.992V139.471h28.369V252
	h38.093v-71.127h23.64V252h4.313V146.848H779h21h2.111V252h4.313v-71.127h23.64V252h38.093V139.471h28.369V252h5.992V116.403
	c0-7.59,5.893-13.779,13.32-14.23l0.864-36.032l0.863,36.032c7.431,0.451,13.321,6.641,13.321,14.23V252h36.923V150.689h28.369V252
	h23.172v-79.627h32.383V252h18.286V113.472h12.255l1.038-43.333l1.038,43.333h16.304v27.859h20.192l10.005-17.438l10.004,17.438
	h2.021v-16.429h28.537V252h5.532v-57.063h13.104v-17.289h21.839v-12.016h23.297v19.928h10.482V86.512h7.538
	c2.353-6.014,7.948-10.37,14.626-10.892l1.119-46.71l1.119,46.688c6.873,0.358,12.665,4.769,15.068,10.915h5.956V252h5.531V150.103
	h27.083V252h8.734V150.103h19.124l18.766-32.709l18.766,32.709h18.475V252h4.366v-52.137h29.703V252h6.406v-41.238h14.852V252
	h13.396v-70.014h22.421V252h1.457v-45.984h14.852v-6.154h14.849V252h4.369v-78.453h20.966v-23.444h15.129l1.211-50.6l1.214,50.6
	H1579V310H800z"/>
<path fill-rule="evenodd" clip-rule="evenodd" fill="#8F98CC" d="M800,310H0V208.168h27.794v85.498h6.134v-62.052h52.45v62.052
	h39.511v-68.08h49.049v-15.073h52.453v83.153h27.588v-78.799h47.685v78.799h10.218V202.14h47.685v91.526h12.262V168.31h30.446
	v27.801h12.942v97.556h16.218v-69.419h30.445v69.419h44.149v-62.385h41.212v-20.097h50.88v15.742h45.981v66.739h33.249v-42.623
	h8.515v-17.752h26.698v42.539h27.589v-69.336h14.284v-38.68H800h44.563v38.68h14.284v69.336h27.589v-42.539h26.698v17.752h8.515
	v42.623h33.249v-66.739h45.981v-15.742h50.88v20.097h41.212v62.385h44.149v-69.419h30.445v69.419h16.218V196.11h12.942V168.31
	h30.446v125.356h12.262V202.14h47.685v91.526h10.218v-78.799h47.685v78.799h27.588v-83.153h52.453v15.073h49.049v68.08h39.511
	v-62.052h52.45v62.052h6.134v-85.498H1600V310H800z"/>
<path fill-rule="evenodd" clip-rule="evenodd" fill="#7C86C2" d="M800,310H0v-62.457h76.615v9.85h23.803v9.873h14.672V250.5h37.75
	v-6.519h52.009v6.519h32.882v26.49h19.291v-17.463h30.662v-11.984h30.662v49.186h25.59v-72.867h21.487v72.332h4.805v-31.229h21.487
	v31.229h6.333v-31.229h39.745v31.229h12.535v-11.43h21.487v11.43h10.002v-31.229h21.487v31.764h26.878v-31.764h52.421v31.229h8.407
	v-17.422h14.672V250.5h29.343v45.693h33.135v-13.807h41.705v-15.121h41.705v21.367h18.3v-41.09H800h76.615v9.85h23.803v9.873h14.672
	V250.5h37.75v-6.519h52.009v6.519h32.882v26.49h19.291v-17.463h30.662v-11.984h30.662v49.186h25.59v-72.867h21.487v72.332h4.805
	v-31.229h21.487v31.229h6.333v-31.229h39.745v31.229h12.535v-11.43h21.487v11.43h10.002v-31.229h21.487v31.764h26.878v-31.764
	h52.421v31.229h8.407v-17.422h14.672V250.5h29.343v45.693h33.135v-13.807h41.705v-15.121h41.705v21.367h18.3v-41.09H1600V310H800z"
	/>
</svg>
