<?xml version="1.0" encoding="utf-8"?>
<!-- Generator: Adobe Illustrator 16.0.0, SVG Export Plug-In . SVG Version: 6.00 Build 0)  -->
<!DOCTYPE svg PUBLIC "-//W3C//DTD SVG 1.1//EN" "http://www.w3.org/Graphics/SVG/1.1/DTD/svg11.dtd">
<svg version="1.1" id="Capa_1" xmlns="http://www.w3.org/2000/svg" xmlns:xlink="http://www.w3.org/1999/xlink" x="0px" y="0px"
	 width="200px" height="260px" viewBox="-88.603 -27.603 200 260" enable-background="new -88.603 -27.603 200 260"
	 xml:space="preserve">
<path fill="#FFFFFF" d="M70.379,139.968c3.814,8.953,5.381,18.332,5.078,27.526c4.639-0.974,9.256-2.197,13.809-3.732
	c3.59-1.212,7.416,0.569,8.881,4.006c0.098,0.226,0.184,0.454,0.256,0.695c1.219,3.884-0.893,8.075-4.721,9.364
	c-6.762,2.279-13.635,3.981-20.553,5.154c-5.006,17.945-17.549,33.638-35.613,41.803c-39.324,17.775-86.707-4.183-105.82-49.04
	c-10.843-25.45-9.932-53.09-0.215-75.249c15.543,12.121,36.703,15.703,56.043,6.96C19.479,93.012,56.575,107.569,70.379,139.968z"/>
<path fill="#7682C0" d="M70.549,138.015c3.816,8.954,5.381,18.332,5.078,27.525c4.639-0.972,9.256-2.195,13.809-3.729
	c3.588-1.213,7.416,0.569,8.881,4.005c0.098,0.226,0.184,0.454,0.256,0.694c1.219,3.886-0.893,8.076-4.719,9.365
	c-6.764,2.279-13.635,3.982-20.555,5.153c-5.006,17.946-17.549,33.639-35.613,41.803c-39.326,17.776-86.708-4.182-105.821-49.039
	c-10.842-25.45-9.932-53.09-0.214-75.248c15.543,12.12,36.702,15.7,56.042,6.959C19.649,91.059,56.745,105.617,70.549,138.015z
	 M-6.538,119.042c-17.149,7.751-36.385,7.984-53.463,1.21c-3.042,15.575-1.296,32.214,5.22,47.507
	c15.904,37.325,54.797,55.956,86.699,41.535c11.95-5.4,20.733-15.119,25.415-26.534c-0.539,0.027-17.551-2.071-18.042-2.044
	c2.437-4.299,21.138-7.436,21.65-12.872c0.229-0.019-0.193-0.169,0.047-0.188c0.648-7.848-0.52-15.931-3.789-23.604
	C46.594,119.17,18.003,107.95-6.538,119.042z"/>
<polygon fill="#7682C0" points="21.827,163.31 19.323,157.606 25.027,155.103 22.414,149.151 16.711,151.655 14.208,145.951 
	8.256,148.564 10.759,154.267 5.056,156.769 7.667,162.722 13.372,160.218 15.875,165.923 "/>
<polygon fill="#7682C0" points="34.838,192.957 32.335,187.251 38.037,184.748 35.425,178.796 29.723,181.299 27.22,175.597 
	21.268,178.209 23.771,183.913 18.067,186.415 20.679,192.368 26.382,189.864 28.887,195.568 "/>
<path fill="#B6BFE0" d="M15.17,34.487c-0.433-0.154-0.919-0.047-1.244,0.281L-1.408,50.1c-1.701,1.702-3.966,2.636-6.377,2.636
	c-2.412,0-4.676-0.935-6.376-2.636c-3.516-3.517-3.516-9.239,0-12.755L1.17,22.016c0.327-0.326,0.435-0.811,0.28-1.245
	c-0.154-0.435-0.547-0.741-1.005-0.785l-10.705-1.064c-0.359-0.041-0.708,0.089-0.962,0.344l-10.511,10.51
	c-3.719,3.719-5.768,8.673-5.768,13.947c0,5.275,2.049,10.229,5.768,13.947c3.719,3.72,8.672,5.768,13.948,5.768
	c5.274,0,10.228-2.048,13.947-5.768l10.511-10.51c0.253-0.252,0.379-0.607,0.344-0.962l-1.063-10.705
	C15.909,35.035,15.605,34.644,15.17,34.487z M44.526-8.587c-3.721-3.72-8.674-5.768-13.948-5.768
	c-5.275,0-10.229,2.048-13.948,5.768L6.119,1.924C5.866,2.176,5.74,2.53,5.776,2.885l1.063,10.706
	c0.045,0.459,0.351,0.851,0.786,1.005c0.434,0.156,0.918,0.047,1.245-0.279L24.2-1.017c1.701-1.701,3.966-2.637,6.378-2.637
	c2.411,0,4.676,0.937,6.378,2.637c3.516,3.516,3.516,9.237,0,12.754L21.624,27.069c-0.326,0.326-0.435,0.812-0.28,1.245
	c0.155,0.434,0.547,0.74,1.006,0.784l10.704,1.064c0.04,0.005,0.079,0.007,0.117,0.007c0.314,0,0.619-0.125,0.844-0.349
	l10.512-10.512C52.217,11.618,52.217-0.896,44.526-8.587z M-20.468,15.631c0.007,0,0.014,0,0.021,0l12.882-0.224
	c0.589-0.011,1.083-0.45,1.161-1.035c0.079-0.584-0.282-1.139-0.848-1.305l-12.37-3.607c-0.334-0.098-0.694-0.044-0.984,0.147
	c-0.291,0.189-0.485,0.497-0.531,0.841l-0.514,3.832c-0.045,0.345,0.061,0.692,0.292,0.951
	C-21.132,15.486-20.808,15.631-20.468,15.631z M-0.075,5.894c0.15,0.513,0.621,0.859,1.145,0.859c0.052,0,0.105-0.004,0.159-0.012
	C1.813,6.663,2.253,6.169,2.264,5.58L2.487-7.302c0.006-0.349-0.14-0.681-0.4-0.912C1.827-8.445,1.48-8.552,1.135-8.504
	l-3.831,0.516c-0.344,0.046-0.652,0.241-0.841,0.532C-3.727-7.166-3.78-6.806-3.683-6.472L-0.075,5.894z M43.241,33.452
	l-12.882,0.224c-0.59,0.011-1.083,0.448-1.162,1.035c-0.079,0.584,0.281,1.139,0.848,1.305l12.37,3.607
	c0.11,0.031,0.222,0.048,0.334,0.048c0.23,0,0.456-0.067,0.651-0.194c0.291-0.189,0.483-0.496,0.531-0.842l0.513-3.83
	c0.046-0.347-0.059-0.692-0.291-0.952C43.922,33.591,43.574,33.437,43.241,33.452z M22.868,43.192
	c-0.165-0.567-0.714-0.934-1.303-0.848c-0.584,0.079-1.024,0.573-1.036,1.162l-0.223,12.88c-0.005,0.348,0.14,0.68,0.399,0.911
	c0.22,0.195,0.503,0.302,0.794,0.302c0.052,0,0.105-0.003,0.159-0.012l3.83-0.514c0.345-0.046,0.652-0.24,0.842-0.531
	c0.189-0.292,0.243-0.651,0.147-0.984L22.868,43.192z"/>
</svg>
