<?xml version="1.0" encoding="utf-8"?>
<!-- Generator: Adobe Illustrator 16.0.0, SVG Export Plug-In . SVG Version: 6.00 Build 0)  -->
<!DOCTYPE svg PUBLIC "-//W3C//DTD SVG 1.1//EN" "http://www.w3.org/Graphics/SVG/1.1/DTD/svg11.dtd">
<svg version="1.1" id="Layer_1" xmlns="http://www.w3.org/2000/svg" xmlns:xlink="http://www.w3.org/1999/xlink" x="0px" y="0px"
	 width="200px" height="200px" viewBox="0 0 200 200" enable-background="new 0 0 200 200" xml:space="preserve">
<path fill-rule="evenodd" clip-rule="evenodd" fill="#FFFFFF" d="M117.406,21.044c12.321,0.133,23.987,3.09,34.488,8.118
	c1.232-5.873,2.162-11.845,2.701-17.905c0.421-4.777,4.432-8.307,9.161-8.256c0.31,0.003,0.619,0.019,0.935,0.058
	c5.123,0.562,8.907,5.143,8.454,10.233c-0.799,8.998-2.321,17.831-4.482,26.446c18.254,14.932,30.062,37.454,30.336,62.545
	c0.598,54.625-48.958,98.375-110.675,97.709c-35.015-0.378-66.59-15.496-87.329-38.031c21.956-11.849,36.871-34.554,36.577-61.419
	C37.087,56.155,72.83,20.563,117.406,21.044z"/>
<path fill-rule="evenodd" clip-rule="evenodd" fill="#7682C0" d="M117.406,18.044c12.321,0.133,23.987,3.09,34.488,8.118
	c1.232-5.873,2.162-11.845,2.701-17.905c0.421-4.777,4.432-8.307,9.161-8.256c0.31,0.003,0.619,0.019,0.935,0.058
	c5.123,0.562,8.907,5.143,8.454,10.233c-0.799,8.998-2.321,17.831-4.482,26.446c18.254,14.932,30.062,37.454,30.336,62.545
	c0.598,54.625-48.958,98.375-110.675,97.709c-35.015-0.378-66.59-15.496-87.329-38.031c21.956-11.849,36.871-34.554,36.577-61.419
	C37.087,53.155,72.83,17.563,117.406,18.044z M56.198,97.743c0.261,23.821-9.255,46.235-25.796,62.585
	c16.506,11.449,36.68,17.89,57.719,18.117c51.355,0.554,92.736-35.049,92.252-79.362c-0.182-16.598-6.979-31.726-17.827-42.957
	c-0.244,0.638-11.332,19.289-11.549,19.874c-3.744-5.013,2.137-28.285-3.906-31.642c0.094-0.277-0.295,0.137-0.195-0.153
	c-8.764-4.743-18.73-7.5-29.286-7.615C83.377,36.222,55.826,63.656,56.198,97.743z"/>
<path fill-rule="evenodd" clip-rule="evenodd" fill="#7682C0" d="M113.497,81c5.799,0,10.5,4.701,10.5,10.5s-4.701,10.5-10.5,10.5
	s-10.5-4.701-10.5-10.5S107.698,81,113.497,81z"/>
<path fill-rule="evenodd" clip-rule="evenodd" fill="#7682C0" d="M150.497,81c5.799,0,10.5,4.701,10.5,10.5s-4.701,10.5-10.5,10.5
	s-10.5-4.701-10.5-10.5S144.698,81,150.497,81z"/>
<path fill-rule="evenodd" clip-rule="evenodd" fill="#FFFFFF" d="M111.997,84c1.657,0,3,1.343,3,3s-1.343,3-3,3s-3-1.343-3-3
	S110.34,84,111.997,84z"/>
<path fill-rule="evenodd" clip-rule="evenodd" fill="#FFFFFF" d="M147.997,84c1.657,0,3,1.343,3,3s-1.343,3-3,3s-3-1.343-3-3
	S146.34,84,147.997,84z"/>
</svg>
